PathFileType	4	(X/Y/Z)	C:\Users\Basilio\Documents\Thesis Gigler\squatting_fais\c3dfiles\040\SLS_pre_back5\markers_experimental.trc
DataRate	CameraRate	NumFrames	NumMarkers	Units	OrigDataRate	OrigDataStartFrame	OrigNumFrames
200.000000	200.000000	4	63	mm	200.000000	1285	1469
Frame#	Time	FHD			LBHD			RBHD			C7			T10			CLAV			LSHO			LUUPA			LMUPA			LDUPA			LLEP			LMEP			LRAD			LUL			LRFIN			RSHO			RUPA1			RMUPA			RDUPA			RLEP			RMEP			RRAD			RUL			RUFIN			LASI			RASI			USACR			LSACR			RSACR			LTHI1			LTHI2			LTHI3			LTHI4			LLFC			LMFC			LTIB1			LTIB2			LTIB3			LTIB4			LLMAL			LMMAL			LHEE			LMT1			LMT2			LMT5			RTHI			RTHI2			RTHI3			RTHI4			RLFC			RMFC			RTIB1			RTIB2			RTIB3			RTIB4			RLMAL			RMMAL			RHEE			RMT1			RMT2			RMT5			*61			*62			
		X1	Y1	Z1	X2	Y2	Z2	X3	Y3	Z3	X4	Y4	Z4	X5	Y5	Z5	X6	Y6	Z6	X7	Y7	Z7	X8	Y8	Z8	X9	Y9	Z9	X10	Y10	Z10	X11	Y11	Z11	X12	Y12	Z12	X13	Y13	Z13	X14	Y14	Z14	X15	Y15	Z15	X16	Y16	Z16	X17	Y17	Z17	X18	Y18	Z18	X19	Y19	Z19	X20	Y20	Z20	X21	Y21	Z21	X22	Y22	Z22	X23	Y23	Z23	X24	Y24	Z24	X25	Y25	Z25	X26	Y26	Z26	X27	Y27	Z27	X28	Y28	Z28	X29	Y29	Z29	X30	Y30	Z30	X31	Y31	Z31	X32	Y32	Z32	X33	Y33	Z33	X34	Y34	Z34	X35	Y35	Z35	X36	Y36	Z36	X37	Y37	Z37	X38	Y38	Z38	X39	Y39	Z39	X40	Y40	Z40	X41	Y41	Z41	X42	Y42	Z42	X43	Y43	Z43	X44	Y44	Z44	X45	Y45	Z45	X46	Y46	Z46	X47	Y47	Z47	X48	Y48	Z48	X49	Y49	Z49	X50	Y50	Z50	X51	Y51	Z51	X52	Y52	Z52	X53	Y53	Z53	X54	Y54	Z54	X55	Y55	Z55	X56	Y56	Z56	X57	Y57	Z57	X58	Y58	Z58	X59	Y59	Z59	X60	Y60	Z60	X61	Y61	Z61	X62	Y62	Z62	X63	Y63	Z63	

1286	6.425	-32.67354202270509	1752.94384765625	-1124.450073242188	-140.3551025390625	1725.258422851563	-1209.154174804688	-243.2467956542969	1701.90869140625	-1106.712768554688	-267.9842834472657	1577.490356445313	-1129.8525390625	-320.9152221679688	1257.202758789063	-1099.392944335938	-149.6116943359375	1491.472045898438	-1124.322631835938	-205.9255371093751	1518.4052734375	-1296.6494140625	-194.4723815917969	1311.208251953125	-1373.143188476563	-151.14404296875	1294.809814453125	-1355.407348632813	-179.4355773925782	1244.408081054688	-1378.738525390625	-176.6856536865235	1180.227905273438	-1375.685913085938	-204.2580566406251	1165.45068359375	-1315.6171875	30.81327629089356	982.2615966796877	-1330.894287109375	-16.22915267944336	955.1187133789065	-1383.277709960938	88.24480438232423	919.0088500976565	-1361.907958984375	-190.7265014648438	1522.69873046875	-959.4335937500002	-201.1942138671876	1324.099243164063	-855.2007446289065	-158.4344635009766	1306.676879882813	-867.3466796875002	-185.3251037597657	1257.768310546875	-844.4131469726565	-166.1619110107422	1196.526611328125	-837.0588989257815	-193.1998443603516	1171.253662109375	-905.856872558594	55.70715713500978	1009.548767089844	-869.0136718750002	5.731615543365479	975.122497558594	-823.4783325195315	115.3583221435547	950.9227294921877	-832.8862915039065	-145.2474975585938	1073.9287109375	-1212.829345703125	-133.942626953125	1082.0869140625	-982.8256835937502	-325.8788146972657	1121.96826171875	-1084.414428710938	-333.6148376464844	1091.94677734375	-1111.107421875	-331.7149353027344	1093.262573242188	-1054.732666015625	-280.9962768554688	823.3313598632815	-1253.84912109375	-245.6893615722657	746.2205200195314	-1256.307006835938	-199.5624694824219	748.2892456054689	-1261.625854492188	-269.9749145507813	694.6590576171876	-1240.505859375	-257.5102539062501	560.6986694335939	-1227.628051757813	-256.9367370605469	546.6840820312501	-1095.079833984375	-250.7581176757813	334.8270263671876	-1177.20703125	-325.8945617675782	304.2055969238282	-1214.817749023438	-284.7528076171876	291.6252746582032	-1200.400512695313	-286.2319946289063	213.9846191406251	-1162.290283203125	-363.2286987304688	134.3875122070313	-1170.06494140625	-330.2834472656251	146.6133728027344	-1089.597534179688	-428.6608886718751	102.3251342773438	-1121.759033203125	-216.7862396240235	58.21297454833986	-1102.495361328125	-217.5645599365235	53.35646057128908	-1149.550537109375	-270.2591552734376	41.08615493774415	-1197.870483398438	-176.5972290039063	812.174743652344	-911.9387817382815	-141.0597381591797	755.5246582031251	-917.9344482421877	-108.8312377929688	758.5679931640626	-926.813903808594	-170.2450256347657	678.4840087890626	-929.4334106445315	-167.2410125732422	544.9506835937501	-941.7113037109377	-175.5374755859375	539.9818725585939	-1073.867065429688	-138.9670562744141	354.8128967285157	-971.6057128906252	-217.7659454345704	287.7467956542969	-942.858337402344	-173.8583221435547	277.0209960937501	-956.1397094726565	-166.442611694336	229.8573303222657	-992.1424560546877	-233.5918273925782	122.1717987060547	-969.975769042969	-219.7884216308594	139.087142944336	-1056.0498046875	-303.3013305664063	86.7320022583008	-1020.936706542969	-88.07685852050783	57.54912567138673	-1057.574096679688	-88.58754730224611	54.27358627319337	-1018.056030273438	-125.2533950805664	32.16711044311524	-961.691589355469	nan	nan	nan	nan	nan	nan	
1287	6.43	-34.31003952026368	1753.069091796875	-1124.17578125	-141.9145202636719	1725.394409179688	-1208.896484375	-244.4637145996094	1701.978271484375	-1106.6328125	-269.3678894042969	1577.3408203125	-1129.939453125	-322.0361328125001	1257.038452148438	-1099.46435546875	-151.2332305908203	1491.654418945313	-1123.953002929688	-206.6326141357422	1518.664916992188	-1296.436157226563	-192.3968658447266	1312.327514648438	-1373.174560546875	-148.846923828125	1296.858032226563	-1355.560913085938	-176.0890197753907	1245.64501953125	-1379.172729492188	-172.0743408203125	1181.61572265625	-1376.291625976563	-199.5045776367188	1166.029663085938	-1316.730224609375	38.73881149291993	988.1216430664065	-1330.056518554688	-6.753731727600099	959.6335449218752	-1382.987670898438	98.30981445312503	925.7792968750002	-1360.701171875	-192.1901092529297	1523.120361328125	-959.537780761719	-199.6288604736329	1324.800170898438	-855.7127075195315	-155.9853973388672	1308.0869140625	-867.9183349609377	-182.2549133300782	1258.716796875	-844.9695434570315	-162.1417541503907	1197.48388671875	-837.489440917969	-189.3683471679688	1171.887084960938	-906.1811523437502	61.88791275024415	1013.316101074219	-871.8973388671877	13.40214443206787	978.9556274414065	-825.3876953125002	122.9455261230469	955.9353027343752	-836.3623046875002	-145.8974304199219	1074.0615234375	-1212.602783203125	-135.2240295410157	1082.01953125	-982.5027465820315	-326.5597229003907	1122.224975585938	-1084.586547851563	-334.6027832031251	1092.161499023438	-1111.244873046875	-332.6470336914063	1093.317504882813	-1054.84326171875	-281.5007019042969	823.372009277344	-1253.962524414063	-246.1460876464844	746.2915039062501	-1256.3564453125	-200.0162200927735	748.3422241210939	-1261.7919921875	-270.5466003417969	694.7610473632814	-1240.6943359375	-257.9954833984376	560.7763671875001	-1227.721069335938	-257.4514465332032	546.6797485351564	-1095.2158203125	-251.1262817382813	335.1624450683594	-1177.0751953125	-326.0091552734376	304.1056213378907	-1214.994750976563	-284.9332275390626	291.0883789062501	-1200.66650390625	-286.3902282714844	213.9450988769532	-1162.325561523438	-363.2290954589844	134.336898803711	-1170.256713867188	-330.2522277832032	146.5442962646485	-1089.791748046875	-428.6427001953126	102.3098526000977	-1121.73046875	-216.810043334961	58.24980545043947	-1102.570556640625	-217.5471343994141	53.387264251709	-1149.564697265625	-270.2686462402344	41.09309768676759	-1197.887939453125	-177.4670104980469	812.2678222656252	-911.8967895507815	-141.9883117675782	755.5474243164064	-917.3425903320315	-109.5940551757813	758.8994140625001	-926.152770996094	-171.1959991455078	678.5828857421876	-929.206726074219	-167.8315124511719	544.9419555664064	-941.5989379882815	-175.947006225586	540.3976440429689	-1073.7099609375	-139.5620422363282	355.1370239257813	-971.185729980469	-218.1048736572266	287.7542114257813	-942.8626098632815	-174.1202239990235	277.0414123535157	-955.9271240234377	-166.670166015625	229.9911346435547	-991.8030395507815	-233.754379272461	122.1368255615235	-969.9392700195315	-219.5483703613282	138.8453521728516	-1056.118774414063	-303.3757324218751	86.67253875732423	-1020.993041992188	-88.05210113525392	57.58260726928712	-1057.554321289063	-88.58995819091798	54.2920265197754	-1018.007568359375	-125.2718353271485	32.16013717651368	-961.697204589844	nan	nan	nan	nan	nan	nan	
1288	6.435	-36.37028121948243	1753.426513671875	-1123.498779296875	-143.4605712890625	1725.685668945313	-1208.5361328125	-246.6326751708985	1702.063842773438	-1106.523681640625	-270.9875183105469	1577.328979492188	-1130.067993164063	-322.8024291992188	1257.3212890625	-1099.334594726563	-152.6126708984375	1491.7421875	-1123.815673828125	-207.7830505371094	1518.960083007813	-1296.162109375	-189.9926300048828	1313.513549804688	-1373.746459960938	-146.0357971191407	1298.18603515625	-1355.8017578125	-172.527816772461	1247.182373046875	-1379.63623046875	-167.5716552734375	1183.098022460938	-1376.913452148438	-195.751937866211	1166.705078125	-1317.187377929688	47.16634368896485	993.677185058594	-1329.267700195313	2.109456539154053	964.3684692382815	-1382.508422851563	107.7354049682617	932.9295043945315	-1359.305053710938	-193.5209197998047	1523.44921875	-959.8496093750002	-198.1824340820313	1325.580810546875	-856.122009277344	-154.5244903564453	1309.407348632813	-868.462585449219	-179.5411071777344	1259.567016601563	-845.2834472656252	-158.3552398681641	1199.023681640625	-838.199157714844	-185.5555572509766	1172.9091796875	-906.5156250000002	68.08499145507814	1017.797119140625	-874.8541259765627	20.03825950622559	982.5463867187502	-827.552429199219	130.2522277832032	960.924011230469	-840.0811157226565	-146.0166015625	1074.42431640625	-1212.222045898438	-136.2868041992188	1082.118041992188	-982.346618652344	-327.6248474121094	1122.014282226563	-1084.817749023438	-335.5289916992188	1092.232177734375	-1111.522583007813	-333.7354431152344	1093.38720703125	-1055.12451171875	-282.1364746093751	823.512145996094	-1254.119873046875	-246.5307769775391	746.2918701171876	-1256.4912109375	-200.4015808105469	748.4672241210939	-1261.824829101563	-270.9171142578126	694.7492675781251	-1240.892333984375	-258.3038330078126	560.8012084960939	-1227.813232421875	-257.7922363281251	546.5155029296876	-1095.451782226563	-251.3848571777344	335.2152709960938	-1177.09814453125	-326.0431213378907	304.0513000488282	-1215.1572265625	-285.0109252929688	291.5135192871094	-1200.582885742188	-286.4118957519532	213.9048461914063	-1162.399536132813	-363.2591247558594	134.2925872802735	-1170.371459960938	-330.3157653808594	146.5466003417969	-1089.867431640625	-428.828338623047	102.4217681884766	-1121.94970703125	-216.8687744140626	58.31533050537111	-1102.576171875	-217.551742553711	53.39029693603517	-1149.660278320313	-270.2934875488282	41.01465225219727	-1197.936401367188	-178.6371765136719	812.3299560546877	-911.2005615234377	-143.0084991455078	755.9470214843751	-917.128845214844	-110.5274963378907	758.8477783203126	-926.6547851562502	-172.0719146728516	678.7640991210939	-929.2480468750002	-168.5116119384766	544.9209594726564	-941.4490356445315	-176.4248504638672	540.3723144531251	-1073.60009765625	-140.0262451171875	354.7893981933594	-971.166931152344	-218.3067779541016	287.7382202148438	-942.8645629882815	-174.5633544921875	277.3668823242188	-955.653259277344	-166.8726959228516	229.9932556152344	-991.765319824219	-233.8301391601563	122.1095123291016	-969.8927001953127	-219.5681152343751	138.7910461425782	-1056.087524414063	-303.4811401367188	86.54753875732423	-1021.02734375	-88.03867340087892	57.63243484497072	-1057.5302734375	-88.63358306884767	54.37062454223634	-1018.033630371094	-125.2767028808594	32.16928482055665	-961.7078857421877	nan	nan	nan	nan	nan	nan	
1289	6.44	-37.43560028076173	1753.353271484375	-1123.350219726563	-144.8791809082032	1725.795532226563	-1208.2978515625	-247.9068145751954	1702.0625	-1106.477416992188	-272.4036560058594	1577.19140625	-1130.1904296875	-324.0433959960938	1257.2939453125	-1099.40966796875	-153.7850799560547	1491.966674804688	-1123.80517578125	-208.6684265136719	1519.190063476563	-1295.805786132813	-187.6894989013672	1314.56982421875	-1373.822631835938	-143.9907531738282	1300.181762695313	-1355.822387695313	-169.1822357177735	1248.670776367188	-1380.062866210938	-162.9361267089844	1184.582153320313	-1377.410400390625	-191.3113403320313	1167.619873046875	-1318.13427734375	54.75777816772462	998.9757080078127	-1327.949829101563	11.06178188323975	969.2655029296877	-1382.08203125	117.6788330078125	940.1446533203127	-1357.027465820313	-195.3437652587891	1523.92578125	-960.1553344726565	-196.5869445800782	1326.285034179688	-856.6790161132815	-152.5365905761719	1310.373901367188	-869.0676879882815	-176.9579162597657	1260.478881835938	-846.0043945312502	-154.438720703125	1200.283081054688	-838.6882324218752	-182.1994171142578	1173.745971679688	-906.932556152344	73.9610061645508	1022.357543945313	-877.742126464844	27.07390785217286	986.3518676757815	-829.3942871093752	137.0174560546875	965.4890136718752	-844.6762695312502	-147.6658782958985	1074.62353515625	-1212.577026367188	-137.1530914306641	1082.2177734375	-982.3365478515627	-328.6658020019532	1122.194091796875	-1085.023315429688	-336.5477600097657	1092.359497070313	-1111.711547851563	-334.7349853515626	1093.441040039063	-1055.378295898438	-282.6185302734376	823.649841308594	-1254.201904296875	-246.8766632080079	746.2623291015626	-1256.677734375	-200.8392944335938	748.6043701171876	-1261.893676757813	-271.1694335937501	694.7370605468751	-1241.03759765625	-258.5897521972657	560.8933715820314	-1227.943481445313	-258.1315917968751	546.5199584960939	-1095.586059570313	-251.4817199707032	335.1178283691407	-1177.055786132813	-326.0820007324219	303.9916992187501	-1215.287719726563	-285.1264953613282	291.0079650878907	-1200.7060546875	-286.4972839355469	213.9947204589844	-1162.453735351563	-363.2316589355469	134.2101593017578	-1170.435546875	-330.3639221191407	146.4855499267578	-1090.03564453125	-428.8196716308595	102.3725051879883	-1121.937866210938	-216.0407867431641	58.62196731567384	-1103.383056640625	-217.6463012695313	53.33432769775392	-1149.640258789063	-270.2786865234376	40.72719955444337	-1197.551879882813	-179.5883941650391	812.2634277343752	-911.039978027344	-143.7538146972657	755.9761352539064	-917.1007080078127	-111.4811706542969	758.5657348632814	-926.4931640625002	-172.6474304199219	678.7753295898439	-929.2078247070315	-169.4167175292969	544.8901977539064	-941.3242187500002	-176.8227233886719	540.3185424804689	-1073.586547851563	-140.4277648925782	354.9628295898438	-970.9985961914065	-218.4783477783204	287.6527404785157	-942.8015747070315	-175.0829467773438	277.0758361816407	-955.6125488281252	-166.9894714355469	229.9257354736329	-991.6610107421877	-233.6028900146485	122.2466278076172	-969.6589355468752	-219.6730651855469	138.7518310546875	-1056.007934570313	-303.4262084960938	86.42187500000001	-1021.103942871094	-88.03195190429689	57.71722412109376	-1057.542358398438	-88.63140869140626	54.41940307617189	-1018.006042480469	-125.3331756591797	32.14299774169923	-961.7383422851565	nan	nan	nan	nan	nan	nan	
